<?xml version="1.0" encoding="UTF-8"?>
<svg version="1.1" xmlns="http://www.w3.org/2000/svg" width="500" height="500">
<path d="M0 0 C6.7742001 6.96774867 8.46049166 13.39544816 8.42578125 22.89453125 C8.1779405 26.3846166 7.50191838 29.49145647 6.625 32.875 C4.79875102 40.13651382 4.41461823 45.99971675 8.0625 52.6875 C11.05850372 56.30032802 13.16623349 58.43949642 17.5625 60.1875 C22.86284889 62.45415327 26.92618308 64.74976626 29.1875 70.25 C29.89108198 75.13416792 29.82601284 79.76148366 27.5 84.1875 C23.94974612 88.88918757 23.94974612 88.88918757 20.1875 90.25 C14.81106267 90.90766818 10.58329958 90.94789979 5.6875 88.5 C2.42766524 85.56614872 0.57654724 83.41714171 -0.8125 79.25 C-0.7898307 77.2818929 -0.76256566 75.31354877 -0.69604492 73.34643555 C-0.46661968 65.97092647 -0.326814 60.4329726 -4.8125 54.25 C-9.63450626 49.60151291 -15.37547206 48.09426244 -21.59960938 46.0703125 C-28.84952475 43.5747241 -35.86366754 39.99151268 -39.75 33.0625 C-40.13027344 32.40894531 -40.51054688 31.75539062 -40.90234375 31.08203125 C-43.88444398 25.07943464 -44.01180478 17.15861505 -42.05859375 10.79296875 C-41.09920378 8.82527872 -40.04862664 7.05465875 -38.8125 5.25 C-37.9771875 3.9196875 -37.9771875 3.9196875 -37.125 2.5625 C-26.28856945 -8.27393055 -12.37427012 -7.69954585 0 0 Z " fill="#1C98CD" transform="translate(101.8125,185.75)"/>
<path d="M0 0 C3.81115152 2.13811036 6.78224184 4.45287672 9.625 7.8125 C10.181875 8.451875 10.73875 9.09125 11.3125 9.75 C15.07367208 15.66041328 15.40034927 21.99509975 14.625 28.8125 C12.39963034 36.25716448 8.8162512 41.72358732 2 45.5625 C-4.86842203 49.1678511 -11.02281573 50.0984144 -18.78125 48.234375 C-24.57763763 45.92422051 -29.07402578 42.01234783 -33.7890625 38.00390625 C-39.59502422 33.08374836 -44.26048973 29.41514427 -52.19921875 29.53125 C-56.78551659 30.12409281 -60.60789031 32.57236139 -64.33984375 35.19140625 C-68.67260714 38.2028913 -71.85901721 39.58200143 -77.203125 39.22265625 C-81.72056463 38.36954265 -84.87478097 36.72776522 -87.73046875 33.08203125 C-90.31959175 28.65489602 -90.85729042 24.95708856 -89.98046875 19.921875 C-88.66681628 15.34527929 -86.55293478 12.63431496 -82.6875 9.9375 C-78.27650962 8.4394278 -74.96543549 7.70422795 -70.375 8.8125 C-67.5547614 10.38512376 -64.87447724 12.08901585 -62.18237305 13.86938477 C-57.57004681 16.85756683 -53.89709081 18.57063492 -48.375 17.8125 C-41.4568332 16.11675041 -36.99830514 11.86226237 -31.9375 7.0703125 C-22.70668154 -1.06293913 -11.76134813 -5.62499258 0 0 Z " fill="#1C97CD" transform="translate(167.375,262.1875)"/>
<path d="M0 0 C4.43357141 2.83073693 6.53804075 5.97175436 7.91015625 11.1171875 C8.25827539 15.90594837 7.55174906 19.84596275 4.66015625 23.7421875 C1.65911226 26.91847494 -1.76958035 28.60670994 -5.65234375 30.5546875 C-10.55251084 33.06630282 -13.91637916 35.0429448 -16.42578125 40.0234375 C-18.12708845 45.38755904 -17.32396182 50.30181531 -16.08984375 55.6796875 C-14.23342091 64.42944514 -13.11137587 74.64420762 -17.52734375 82.7421875 C-21.42960658 88.25181097 -26.70681977 91.98951284 -33.08984375 94.1171875 C-42.03923433 94.93182643 -49.75427905 94.72673698 -57.08984375 89.1171875 C-63.49192382 82.50170476 -65.59071743 76.09302477 -65.58959961 66.92797852 C-65.34124776 59.3976937 -62.62177123 54.44308588 -57.21484375 49.3515625 C-52.1671499 45.56579211 -46.50103879 43.80076827 -40.55371094 41.93579102 C-33.03201635 39.54590708 -27.75346598 37.24986863 -23.86401367 30.11035156 C-22.51570782 26.63902737 -22.84387017 23.33818643 -23.08984375 19.6796875 C-23.45522547 7.92299348 -23.45522547 7.92299348 -19.08984375 3.1171875 C-13.90733886 -1.65291647 -6.49146766 -2.74219008 0 0 Z " fill="#1C98CE" transform="translate(90.08984375,238.8828125)"/>
<path d="M0 0 C4.95 0 9.9 0 15 0 C15 9.24 15 18.48 15 28 C23.91 28 32.82 28 42 28 C41.96040599 19.15927137 41.96040599 19.15927137 41.90991211 10.31860352 C41.90741455 9.22475342 41.90491699 8.13090332 41.90234375 7.00390625 C41.89710693 5.87799072 41.89187012 4.7520752 41.88647461 3.59204102 C42 1 42 1 43 0 C47.62 0 52.24 0 57 0 C57 23.1 57 46.2 57 70 C52.38 70 47.76 70 43 70 C42 69 42 69 41.88647461 66.40795898 C41.89171143 65.28204346 41.89694824 64.15612793 41.90234375 62.99609375 C41.90484131 61.90224365 41.90733887 60.80839355 41.90991211 59.68139648 C41.91901611 58.28091064 41.92812012 56.8804248 41.9375 55.4375 C41.958125 51.003125 41.97875 46.56875 42 42 C33.09 42 24.18 42 15 42 C15 51.24 15 60.48 15 70 C10.05 70 5.1 70 0 70 C0 46.9 0 23.8 0 0 Z " fill="#020202" transform="translate(298,223)"/>
<path d="M0 0 C5.28 0 10.56 0 16 0 C19.14856276 7.7065725 22.00505371 15.48668872 24.765625 23.33984375 C25.42301666 25.20570885 25.42301666 25.20570885 26.09368896 27.10926819 C27.01291028 29.71984297 27.93033817 32.33104004 28.84667969 34.94262695 C30.0211209 38.28880023 31.20191138 41.63269602 32.38422012 44.97609615 C33.51553156 48.17921379 34.64016115 51.38466683 35.765625 54.58984375 C36.19055237 55.78979477 36.61547974 56.98974579 37.05328369 58.22605896 C37.44078796 59.33473831 37.82829224 60.44341766 38.22753906 61.58569336 C38.74238861 63.04935585 38.74238861 63.04935585 39.26763916 64.54258728 C40 67 40 67 40 70 C35.05 70 30.1 70 25 70 C22.75117454 65.13963529 21.05637923 61.28189614 20 56 C12.08 56.33 4.16 56.66 -4 57 C-4.639375 58.959375 -5.27875 60.91875 -5.9375 62.9375 C-7.875 68.875 -7.875 68.875 -9 70 C-11.53049402 70.07313567 -14.03304837 70.09247527 -16.5625 70.0625 C-17.27341797 70.05798828 -17.98433594 70.05347656 -18.71679688 70.04882812 C-20.47790013 70.03700864 -22.23896036 70.01907263 -24 70 C-23.42127737 66.08263412 -22.60758163 62.47635243 -21.31347656 58.73583984 C-20.96931702 57.73394623 -20.62515747 56.73205261 -20.27056885 55.69979858 C-19.89768738 54.63097443 -19.52480591 53.56215027 -19.140625 52.4609375 C-18.75436951 51.34369293 -18.36811401 50.22644836 -17.97015381 49.0753479 C-17.15202686 46.71267324 -16.33151551 44.35082306 -15.50878906 41.98974609 C-14.26244071 38.41072483 -13.02517858 34.82866003 -11.7890625 31.24609375 C-10.99012863 28.94251914 -10.19066602 26.63912783 -9.390625 24.3359375 C-9.02584045 23.27925873 -8.66105591 22.22257996 -8.28521729 21.13388062 C-5.78100032 13.96866455 -2.97267121 6.9842773 0 0 Z M7 21 C4.69 28.26 2.38 35.52 0 43 C5.28 43 10.56 43 16 43 C13.69 35.74 11.38 28.48 9 21 C8.34 21 7.68 21 7 21 Z " fill="#000101" transform="translate(207,223)"/>
<path d="M0 0 C6.39283275 3.73702538 10.68843655 8.69030964 13.0390625 15.7421875 C13.88464682 19.76946199 13.91431634 23.85010993 13.5 27.9375 C12.5 28.9375 12.5 28.9375 9.08178711 29.05102539 C7.56363012 29.05086628 6.04546771 29.04517226 4.52734375 29.03515625 C3.72970108 29.0337413 2.93205841 29.03232635 2.11024475 29.03086853 C-0.44737435 29.02525316 -3.00490718 29.01269812 -5.5625 29 C-7.29231645 28.99498698 -9.02213426 28.99042373 -10.75195312 28.98632812 C-15.00133553 28.97527875 -19.25065312 28.95800386 -23.5 28.9375 C-22.71448343 30.25368998 -21.9213763 31.56535228 -21.125 32.875 C-20.68414062 33.60589844 -20.24328125 34.33679688 -19.7890625 35.08984375 C-18.6226016 37.07522272 -18.6226016 37.07522272 -16.5 37.9375 C-13.44098826 38.35818924 -10.55241674 38.42778455 -7.5 37.9375 C-4.47590636 35.66622666 -4.47590636 35.66622666 -2.5 32.9375 C-1.5 31.9375 -1.5 31.9375 1.66015625 31.83984375 C2.94792969 31.85144531 4.23570312 31.86304688 5.5625 31.875 C6.85285156 31.88402344 8.14320313 31.89304687 9.47265625 31.90234375 C10.47167969 31.91394531 11.47070312 31.92554688 12.5 31.9375 C11.58686608 38.43792862 9.46826079 42.01397241 4.75 46.625 C-2.58963291 51.84743111 -9.54042221 52.95484561 -18.5 51.9375 C-25.68635995 50.22013375 -31.07469737 46.87478103 -35.5 40.9375 C-39.65445404 33.56669445 -39.35282618 25.16235253 -38.5 16.9375 C-36.44945948 9.61820952 -31.89746211 4.00966395 -25.5 -0.0625 C-17.44348263 -3.36289401 -7.97567529 -3.67364438 0 0 Z M-20.5 11.9375 C-21.16 13.5875 -21.82 15.2375 -22.5 16.9375 C-15.57 16.9375 -8.64 16.9375 -1.5 16.9375 C-4.00056593 11.96128257 -4.00056593 11.96128257 -7.5 9.9375 C-9.64790929 9.62149811 -9.64790929 9.62149811 -11.9375 9.6875 C-12.69933594 9.68234375 -13.46117187 9.6771875 -14.24609375 9.671875 C-16.84919412 9.97865286 -18.35152793 10.42307807 -20.5 11.9375 Z " fill="#010101" transform="translate(473.5,242.0625)"/>
<path d="M0 0 C4.62 0 9.24 0 14 0 C15.90802893 3.81605785 17.38009565 6.77128607 18.5703125 10.70703125 C18.82683594 11.54041016 19.08335937 12.37378906 19.34765625 13.23242188 C19.60417969 14.08384766 19.86070312 14.93527344 20.125 15.8125 C20.64567414 17.5281848 21.16896959 19.24307704 21.6953125 20.95703125 C21.92234863 21.70960205 22.14938477 22.46217285 22.38330078 23.23754883 C22.8577912 25.0024205 22.8577912 25.0024205 24 26 C26.97 17.42 29.94 8.84 33 0 C37.95 0 42.9 0 48 0 C46.46056379 8.24633663 43.61854518 15.91963072 40.6875 23.75 C40.2084695 25.04408036 39.72995105 26.33835038 39.25195312 27.6328125 C36.23576076 35.78151191 33.13330491 43.89564122 30 52 C26.04 52 22.08 52 18 52 C14.12530206 42.8860683 10.53242272 33.6924367 7.06860352 24.41577148 C6.17880955 22.03928933 5.2778618 19.66720913 4.37695312 17.29492188 C3.80660034 15.77109191 3.23691408 14.24701227 2.66796875 12.72265625 C2.39929489 12.02052505 2.13062103 11.31839386 1.85380554 10.59498596 C0.42147571 6.71325189 0 4.25083881 0 0 Z " fill="#000000" transform="translate(384,241)"/>
<path d="M0 0 C1.93166016 0.01740234 1.93166016 0.01740234 3.90234375 0.03515625 C5.19269531 0.04417969 6.48304688 0.05320313 7.8125 0.0625 C8.81152344 0.07410156 9.81054688 0.08570313 10.83984375 0.09765625 C10.98393699 7.83484921 11.12614234 15.57207528 11.26708984 23.30932617 C11.31516669 25.93661264 11.36366168 28.5638915 11.41259766 31.19116211 C11.48322082 34.9867967 11.55229585 38.78245694 11.62109375 42.578125 C11.64296753 43.73595993 11.66484131 44.89379486 11.68737793 46.0867157 C11.7470182 49.42364577 11.79705185 52.76046879 11.83984375 56.09765625 C11.86389282 57.92787827 11.86389282 57.92787827 11.88842773 59.79507446 C11.89753174 60.97814178 11.90663574 62.16120911 11.91601562 63.38012695 C11.93045715 64.98957939 11.93045715 64.98957939 11.94519043 66.63154602 C11.83984375 69.09765625 11.83984375 69.09765625 10.83984375 70.09765625 C8.5082432 70.19674927 6.17354433 70.22736129 3.83984375 70.22265625 C2.56109375 70.22523438 1.28234375 70.2278125 -0.03515625 70.23046875 C-3.16015625 70.09765625 -3.16015625 70.09765625 -4.16015625 69.09765625 C-4.25963818 66.98627724 -4.28815263 64.87153339 -4.28955078 62.7578125 C-4.29217926 61.7651387 -4.29217926 61.7651387 -4.29486084 60.75241089 C-4.29927842 58.55496635 -4.29634172 56.35760167 -4.29296875 54.16015625 C-4.29364182 52.63940414 -4.29461186 51.11865213 -4.29586792 49.59790039 C-4.29734476 46.40672789 -4.29519077 43.21558333 -4.29052734 40.02441406 C-4.28483005 35.92501095 -4.28810913 31.82567329 -4.29409981 27.72627258 C-4.29770579 24.58483381 -4.29656667 21.44341067 -4.29397202 18.30197144 C-4.29330285 16.79002881 -4.29413082 15.27808479 -4.29645157 13.7661438 C-4.2989787 11.65655738 -4.29513669 9.54707838 -4.28955078 7.4375 C-4.28875519 6.23472412 -4.28795959 5.03194824 -4.28713989 3.79272461 C-4.10394776 -0.09529826 -3.95825194 0.12231928 0 0 Z " fill="#000000" transform="translate(255.16015625,222.90234375)"/>
<path d="M0 0 C4.43357141 2.83073693 6.53804075 5.97175436 7.91015625 11.1171875 C8.25827539 15.90594837 7.55174906 19.84596275 4.66015625 23.7421875 C0.83954631 27.77712434 -4.09074795 29.9206404 -9.06640625 32.24609375 C-12.5499284 34.40191689 -13.95639103 36.67566762 -16.08984375 40.1171875 C-16.74984375 40.1171875 -17.40984375 40.1171875 -18.08984375 40.1171875 C-18.74984375 39.1271875 -19.40984375 38.1371875 -20.08984375 37.1171875 C-21.07984375 37.7771875 -22.06984375 38.4371875 -23.08984375 39.1171875 C-24.07984375 38.4571875 -25.06984375 37.7971875 -26.08984375 37.1171875 C-25.3161951 32.47529561 -25.3161951 32.47529561 -24.04296875 30.4609375 C-22.62556709 26.97552358 -23.05817236 23.55514421 -23.21484375 19.8671875 C-23.43850287 7.90458374 -23.43850287 7.90458374 -19.08984375 3.1171875 C-13.90733886 -1.65291647 -6.49146766 -2.74219008 0 0 Z " fill="#349BCD" transform="translate(90.08984375,238.8828125)"/>
<path d="M0 0 C0.66 0.66 1.32 1.32 2 2 C0.28288416 3.82537533 -1.44710422 5.63454827 -3.1875 7.4375 C-3.67025391 7.95376953 -4.15300781 8.47003906 -4.65039062 9.00195312 C-7.65753232 12.08982346 -9.681885 13.63049687 -14 14 C-19.12820412 15.25588672 -20.81826745 16.89453865 -24 21 C-26.75 22.3125 -26.75 22.3125 -29 23 C-29 23.66 -29 24.32 -29 25 C-33.455 26.485 -33.455 26.485 -38 28 C-38 28.66 -38 29.32 -38 30 C-46.6858458 33.91714614 -46.6858458 33.91714614 -50 34 C-55.32383131 31.85178736 -58.11575516 29.51654948 -60.40625 24.21484375 C-61.83997274 18.86668062 -60.740836 14.481672 -58.3125 9.625 C-54.76024457 5.59271005 -51.24056263 3.88554157 -45.9375 3.3125 C-40.6535575 3.43724738 -37.10179613 6.2168545 -32.80737305 9.05688477 C-28.19504681 12.04506683 -24.52209081 13.75813492 -19 13 C-11.09893734 11.06332745 -5.67232059 5.54205853 0 0 Z " fill="#359CCD" transform="translate(138,267)"/>
<path d="M0 0 C1.36363208 1.97946592 2.69418644 3.9819245 4 6 C6.2035646 8.56553343 8.24773564 9.69406554 11.375 10.9375 C16.67534889 13.20415327 20.73868308 15.49976626 23 21 C23.70358198 25.88416792 23.63851284 30.51148366 21.3125 34.9375 C17.76224612 39.63918757 17.76224612 39.63918757 14 41 C8.56791745 41.66447493 4.36811516 41.69605859 -0.5625 39.1875 C-3 37 -3 37 -5 34 C-4.01 33.505 -4.01 33.505 -3 33 C-3.33 32.67 -3.66 32.34 -4 32 C-4.08790975 29.70848583 -4.10694038 27.41427476 -4.09765625 25.12109375 C-4.0962413 24.4344313 -4.09482635 23.74776886 -4.09336853 23.04029846 C-4.08775479 20.83932199 -4.07520007 18.63844591 -4.0625 16.4375 C-4.05748676 14.94856917 -4.05292355 13.45963676 -4.04882812 11.97070312 C-4.03778093 8.31376925 -4.02050713 4.65689442 -4 1 C-2 0 -2 0 0 0 Z " fill="#349BCD" transform="translate(108,235)"/>
<path d="M0 0 C4.62 0 9.24 0 14 0 C14 17.16 14 34.32 14 52 C9.38 52 4.76 52 0 52 C0 34.84 0 17.68 0 0 Z " fill="#010101" transform="translate(365,241)"/>
<path d="M0 0 C2.78125232 1.92548237 3.73177839 3.30262381 4.9375 6.4375 C5.02316817 9.94989479 4.29644193 11.34473902 2 14 C-2.0234429 15.82193641 -4.05885472 16.28411933 -8.3125 15 C-11 13 -11 13 -12.5625 10.1875 C-13.11673259 6.14951973 -12.19602835 4.37247211 -10 1 C-6.79989699 -0.6000515 -3.47289683 -0.49514569 0 0 Z " fill="#000000" transform="translate(376,222)"/>
<path d="M0 0 C2.71604883 1.92982417 3.74692606 3.34200775 4.9375 6.4375 C5.0193592 9.79372707 3.95463467 11.32142656 2 14 C0 16 0 16 -3.375 16.375 C-7 16 -7 16 -9.375 14.4375 C-11.5699479 11.14507816 -12.06944397 8.95830645 -12 5 C-8.6643553 0.10077185 -5.80969012 -0.95067657 0 0 Z " fill="#010101" transform="translate(286,278)"/>
<path d="M0 0 C0.33 0 0.66 0 1 0 C1.144375 1.0725 1.28875 2.145 1.4375 3.25 C1.83749442 5.91662949 2.27591924 8.41399729 3 11 C2.01 11.33 1.02 11.66 0 12 C0.03029297 12.92337158 0.06058594 13.84674316 0.09179688 14.7980957 C0.20400247 18.2253293 0.31577207 21.65257654 0.42724609 25.07983398 C0.47557386 26.56291261 0.5240752 28.04598559 0.57275391 29.52905273 C0.64270984 31.66128094 0.7120407 33.7935287 0.78125 35.92578125 C0.8440918 37.85031128 0.8440918 37.85031128 0.90820312 39.8137207 C0.96759403 41.87518547 1 43.93767989 1 46 C-2 44 -2 44 -3 41 C-3.05806014 37.46921759 -3.02185086 33.95375708 -2.9609375 30.42382812 C-2.91596662 26.15534178 -3.1438343 22.20725175 -4 18 C-3.67 18 -3.34 18 -3 18 C-2.01 12.06 -1.02 6.12 0 0 Z " fill="#1C82B2" transform="translate(104,224)"/>
<path d="M0 0 C0.66 0.33 1.32 0.66 2 1 C1.30132812 1.55429687 0.60265625 2.10859375 -0.1171875 2.6796875 C-1.02726562 3.40414063 -1.93734375 4.12859375 -2.875 4.875 C-3.77992187 5.59429687 -4.68484375 6.31359375 -5.6171875 7.0546875 C-8.00265176 8.93560474 -8.00265176 8.93560474 -10 11 C-12.25636926 12.50424618 -14.26801379 13.65919521 -16.6875 14.8125 C-19.66437844 16.25732196 -22.33664045 17.87796027 -25.0625 19.75 C-28.92084098 22.24837129 -31.47067719 22.47180446 -36 22 C-35.67 21.34 -35.34 20.68 -35 20 C-33.25 19.4375 -33.25 19.4375 -31 19 C-30.0925 18.814375 -29.185 18.62875 -28.25 18.4375 C-27.5075 18.293125 -26.765 18.14875 -26 18 C-26 17.34 -26 16.68 -26 16 C-22.63316085 13.56839395 -21.26649636 13 -17 13 C-17 12.34 -17 11.68 -17 11 C-15.25 9.4921875 -15.25 9.4921875 -13 7.875 C-12.2575 7.33617187 -11.515 6.79734375 -10.75 6.2421875 C-9.88375 5.62730469 -9.88375 5.62730469 -9 5 C-9.99 4.34 -10.98 3.68 -12 3 C-11.30132812 2.86722656 -10.60265625 2.73445313 -9.8828125 2.59765625 C-8.51769531 2.33275391 -8.51769531 2.33275391 -7.125 2.0625 C-5.76761719 1.80146484 -5.76761719 1.80146484 -4.3828125 1.53515625 C-2.00043683 1.10036299 -2.00043683 1.10036299 0 0 Z " fill="#2488B8" transform="translate(126,279)"/>
<path d="M0 0 C0.33 0.66 0.66 1.32 1 2 C0.67 2.66 0.34 3.32 0 4 C-0.83007271 14.36910499 0.27458317 20.41187476 6 29 C12.62384479 33.01959812 18.31428962 34.62997626 26 34 C25.67 34.66 25.34 35.32 25 36 C17.24507643 36.74249268 11.40012796 35.59043661 5 31 C-1.00673067 24.84434213 -3.28706369 18.97247281 -3.3125 10.375 C-3.32925781 9.06273437 -3.34601562 7.75046875 -3.36328125 6.3984375 C-3 3 -3 3 -1.48046875 1.0390625 C-0.99191406 0.69617188 -0.50335937 0.35328125 0 0 Z " fill="#0774B4" transform="translate(28,297)"/>
<path d="M0 0 C0 0.66 0 1.32 0 2 C-0.90621094 1.94199219 -1.81242187 1.88398438 -2.74609375 1.82421875 C-10.7261805 1.52865998 -16.74008928 1.70109903 -23 7 C-27.76716056 12.05535163 -31.16274855 18.4080881 -31.1875 25.4375 C-31.125625 26.613125 -31.06375 27.78875 -31 29 C-31.66 29 -32.32 29 -33 29 C-33.49112515 21.57855325 -33.12475815 16.28055509 -29 10 C-28.1646875 8.6696875 -28.1646875 8.6696875 -27.3125 7.3125 C-20.20452528 0.20452528 -9.75298893 -3.25099631 0 0 Z " fill="#0878B7" transform="translate(92,181)"/>
<path d="M0 0 C0.66 0.33 1.32 0.66 2 1 C0.39387803 6.6214269 -3.26931174 9.39102569 -8.1015625 12.23828125 C-12.02961532 14.31657829 -12.02961532 14.31657829 -14 15 C-14.66 14.67 -15.32 14.34 -16 14 C-12.777893 10.1334716 -9.85077588 9.11940982 -5 8 C-5 7.34 -5 6.68 -5 6 C-4.34 6 -3.68 6 -3 6 C-2.67 4.68 -2.34 3.36 -2 2 C-1.34 2 -0.68 2 0 2 C0 1.34 0 0.68 0 0 Z " fill="#2589B9" transform="translate(95,256)"/>
<path d="M0 0 C7.92 0 15.84 0 24 0 C24.33 0.99 24.66 1.98 25 3 C16.42 3 7.84 3 -1 3 C-0.67 2.01 -0.34 1.02 0 0 Z " fill="#1E1E1E" transform="translate(449,258)"/>
<path d="M0 0 C2.8318217 3.17462117 3.36831176 5.15127026 3.25 9.375 C3.22421875 10.33792969 3.1984375 11.30085937 3.171875 12.29296875 C2.98426548 15.24781869 2.62595394 18.10496301 2 21 C2.66 21 3.32 21 4 21 C4.66 23.31 5.32 25.62 6 28 C4.0625 27.1875 4.0625 27.1875 2 26 C0.51745955 21.55237865 0.95899711 17.06361729 1.0390625 12.42382812 C1.08403338 8.15534178 0.8561657 4.20725175 0 0 Z " fill="#2189B9" transform="translate(100,242)"/>
<path d="M0 0 C0.33 0.66 0.66 1.32 1 2 C0.67 2.66 0.34 3.32 0 4 C-0.2322646 6.71262116 -0.41936235 9.40773126 -0.5625 12.125 C-0.60568359 12.87910156 -0.64886719 13.63320313 -0.69335938 14.41015625 C-0.7994832 16.27321888 -0.90025001 18.13658524 -1 20 C-3.47385671 17.52614329 -3.28571102 16.02495772 -3.32226562 12.63867188 C-3.31904297 11.95353516 -3.31582031 11.26839844 -3.3125 10.5625 C-3.32861328 9.88123047 -3.34472656 9.19996094 -3.36132812 8.49804688 C-3.3662474 3.47546257 -3.3662474 3.47546257 -1.48046875 1.02734375 C-0.74763672 0.51880859 -0.74763672 0.51880859 0 0 Z " fill="#0B81BF" transform="translate(28,297)"/>
<path d="M0 0 C0 0.66 0 1.32 0 2 C-0.57878906 2.14308594 -1.15757813 2.28617187 -1.75390625 2.43359375 C-3.16074255 2.78836116 -4.56496034 3.15387588 -5.96484375 3.53515625 C-9.73333408 4.54257446 -13.06163239 5.24614798 -17 5 C-14.51737568 2.51737568 -12.38224713 1.92713025 -9.0625 0.8125 C-8.00160156 0.44769531 -6.94070312 0.08289063 -5.84765625 -0.29296875 C-3 -1 -3 -1 0 0 Z " fill="#30ABD8" transform="translate(58,280)"/>
<path d="M0 0 C0.66 0.33 1.32 0.66 2 1 C1.67 1.33 1.34 1.66 1 2 C1.66 2.66 2.32 3.32 3 4 C-1.95 5.485 -1.95 5.485 -7 7 C-7 6.01 -7 5.02 -7 4 C-1.7265625 0.77734375 -1.7265625 0.77734375 0 0 Z " fill="#268BBB" transform="translate(64,274)"/>
<path d="M0 0 C0.66 0.66 1.32 1.32 2 2 C0.92643323 3.15498897 -0.15929788 4.29867867 -1.25 5.4375 C-1.85328125 6.07558594 -2.4565625 6.71367187 -3.078125 7.37109375 C-5.10048016 9.08516306 -6.41270605 9.59358878 -9 10 C-9 9.34 -9 8.68 -9 8 C-7.28515625 6.30859375 -7.28515625 6.30859375 -5.0625 4.4375 C-3.96615234 3.50744141 -3.96615234 3.50744141 -2.84765625 2.55859375 C-2.23792969 2.04425781 -1.62820312 1.52992188 -1 1 C-0.67 0.67 -0.34 0.34 0 0 Z " fill="#2BABDA" transform="translate(138,267)"/>
<path d="M0 0 C0.66 0 1.32 0 2 0 C2 0.66 2 1.32 2 2 C3.98 2.66 5.96 3.32 8 4 C8 5.65 8 7.3 8 9 C3.96189555 7.65396518 2.52704924 5.34663277 0 2 C0 1.34 0 0.68 0 0 Z " fill="#31B7E3" transform="translate(94,235)"/>
<path d="M0 0 C2.1640625 0.2421875 2.1640625 0.2421875 4.625 0.875 C5.44226563 1.07867187 6.25953125 1.28234375 7.1015625 1.4921875 C8.04128906 1.74355469 8.04128906 1.74355469 9 2 C8.67 2.66 8.34 3.32 8 4 C4.7 3.34 1.4 2.68 -2 2 C-1.34 1.34 -0.68 0.68 0 0 Z " fill="#2FB5E0" transform="translate(116,288)"/>
<path d="M0 0 C0.66 0.33 1.32 0.66 2 1 C1.67 5.62 1.34 10.24 1 15 C0.67 15 0.34 15 0 15 C-0.19601608 13.25093341 -0.38147403 11.50068154 -0.5625 9.75 C-0.66691406 8.77546875 -0.77132812 7.8009375 -0.87890625 6.796875 C-0.98974468 4.2368648 -0.77738092 2.41851841 0 0 Z " fill="#2FA7D4" transform="translate(105,218)"/>
<path d="M0 0 C1.258125 -0.020625 2.51625 -0.04125 3.8125 -0.0625 C4.52019531 -0.07410156 5.22789063 -0.08570313 5.95703125 -0.09765625 C8 0 8 0 11 1 C11 1.66 11 2.32 11 3 C7.37 2.67 3.74 2.34 0 2 C0 1.34 0 0.68 0 0 Z " fill="#1881BC" transform="translate(81,180)"/>
<path d="M0 0 C0.66 0.66 1.32 1.32 2 2 C-0.38957269 5.24299151 -2.2047869 7.50902342 -6 9 C-6.33 8.34 -6.66 7.68 -7 7 C-3.25 4 -3.25 4 -1 4 C-0.67 2.68 -0.34 1.36 0 0 Z " fill="#0B78B5" transform="translate(176,298)"/>
<path d="M0 0 C0.99 0.66 1.98 1.32 3 2 C0.36 2.33 -2.28 2.66 -5 3 C-3 1 -3 1 0 0 Z M-7 3 C-5 4 -5 4 -5 4 Z M-9 4 C-8.34 4 -7.68 4 -7 4 C-7.33 4.99 -7.66 5.98 -8 7 C-8.66 6.34 -9.32 5.68 -10 5 C-9.67 4.67 -9.34 4.34 -9 4 Z " fill="#29A2D4" transform="translate(151,260)"/>
<path d="M0 0 C0.33 0.99 0.66 1.98 1 3 C-3.625 5.125 -3.625 5.125 -7 4 C-4.69 2.68 -2.38 1.36 0 0 Z " fill="#0F7FBC" transform="translate(61,328)"/>
<path d="M0 0 C3.36720387 1.39332574 4.9859524 2.9789286 7 6 C3.75728494 5.4409112 2.06942576 4.5867822 0 2 C0 1.34 0 0.68 0 0 Z " fill="#28AFDE" transform="translate(134,298)"/>
<path d="M0 0 C1.32 0.33 2.64 0.66 4 1 C4.33 2.98 4.66 4.96 5 7 C4.34 7 3.68 7 3 7 C1.79371992 4.66785852 0.8345262 2.50357861 0 0 Z " fill="#0770AD" transform="translate(175,271)"/>
<path d="M0 0 C5.75 1.625 5.75 1.625 8 5 C4.40142046 5 2.90548882 4.04169485 0 2 C0 1.34 0 0.68 0 0 Z " fill="#0D7DB7" transform="translate(165,262)"/>
</svg>
