<?xml version="1.0" encoding="UTF-8"?>
<svg version="1.1" xmlns="http://www.w3.org/2000/svg" width="1200" height="275">
<path d="M0 0 C9.24 0 18.48 0 28 0 C28 16.17 28 32.34 28 49 C43.84 49 59.68 49 76 49 C76 32.83 76 16.66 76 0 C85.57 0 95.14 0 105 0 C105 42.24 105 84.48 105 128 C95.43 128 85.86 128 76 128 C76 109.85 76 91.7 76 73 C60.16 73 44.32 73 28 73 C28 91.15 28 109.3 28 128 C18.76 128 9.52 128 0 128 C0 85.76 0 43.52 0 0 Z " fill="#27849F" transform="translate(1066,15)"/>
<path d="M0 0 C0 3.63 0 7.26 0 11 C-1.28132812 11.02578125 -2.56265625 11.0515625 -3.8828125 11.078125 C-24.63942051 11.60308705 -24.63942051 11.60308705 -42 22 C-43.89942124 24.49552137 -43.89942124 24.49552137 -45 27 C-45.556875 27.8971875 -45.556875 27.8971875 -46.125 28.8125 C-48.83028477 35.57571192 -48.20492559 43.77156783 -48.31640625 50.9375 C-48.3475779 52.61851807 -48.3475779 52.61851807 -48.37937927 54.33349609 C-48.44440009 57.8889392 -48.50353768 61.44445178 -48.5625 65 C-48.60573042 67.4205799 -48.64934611 69.84115296 -48.69335938 72.26171875 C-48.80003239 78.1744072 -48.90188411 84.08716369 -49 90 C-47.02 89.67 -45.04 89.34 -43 89 C-43 72.5 -43 56 -43 39 C-39.7 39 -36.4 39 -33 39 C-32.67 54.51 -32.34 70.02 -32 86 C-10.69849911 80.67462478 12.64173537 73.18795505 24.87890625 53.32421875 C27.94124255 46.97547276 28.48248377 40.81942534 27 34 C33.17780305 39.66298613 36.52306546 45.33151576 37.23828125 53.83203125 C37.40712962 60.61262644 36.89667542 65.38096962 33 71 C32.59910156 71.59296875 32.19820312 72.1859375 31.78515625 72.796875 C21.93263638 85.70510393 4.22559562 90.31522734 -10.75 94.3125 C-11.69584961 94.56717041 -12.64169922 94.82184082 -13.61621094 95.08422852 C-20.06227951 96.73052257 -26.36236468 97.58978189 -33 98 C-32.9301296 102.05325528 -32.84171577 106.10568095 -32.73754883 110.15820312 C-32.70469956 111.53114244 -32.67654933 112.90420387 -32.65356445 114.27734375 C-32.47329654 131.71745055 -32.47329654 131.71745055 -24.08984375 146.3828125 C-20.41535928 149.22624534 -16.41360563 150.67329116 -12 152 C-10.97777344 152.350625 -9.95554688 152.70125 -8.90234375 153.0625 C-3.88835613 154.48011699 1.26021254 154.46331503 6.4375 154.625 C7.96407227 154.68300781 7.96407227 154.68300781 9.52148438 154.7421875 C12.01404632 154.83580485 14.50699739 154.91896142 17 155 C17 158.63 17 162.26 17 166 C-18.80539467 166.99051809 -18.80539467 166.99051809 -30.984375 156.25 C-42.61350184 143.92511343 -43.20078836 128.85173092 -43.625 112.6875 C-43.66367188 111.45837891 -43.70234375 110.22925781 -43.7421875 108.96289062 C-43.8351834 105.97539746 -43.92102491 102.98789095 -44 100 C-45.65 100 -47.3 100 -49 100 C-49 108.91 -49 117.82 -49 127 C-52.3 127 -55.6 127 -59 127 C-59 118.09 -59 109.18 -59 100 C-61.31 100 -63.62 100 -66 100 C-65.98428955 100.94206299 -65.9685791 101.88412598 -65.95239258 102.85473633 C-65.90079449 106.4015063 -65.86342459 109.94786857 -65.83520508 113.49487305 C-65.82026066 115.02032832 -65.79989753 116.54574172 -65.77368164 118.07104492 C-65.5543556 131.17470097 -66.39742101 143.41359777 -75 154 C-89.26994676 166.69236471 -106.92151265 166.34362489 -125 166 C-125 162.37 -125 158.74 -125 155 C-123.62328125 154.96261719 -122.2465625 154.92523438 -120.828125 154.88671875 C-101.66795875 154.49563254 -101.66795875 154.49563254 -85 146 C-84.34 146 -83.68 146 -83 146 C-77.2899176 135.01907232 -76.85450513 126.23720864 -76.9375 114.0625 C-76.94201172 112.80630859 -76.94652344 111.55011719 -76.95117188 110.25585938 C-76.96290319 107.17052337 -76.979319 104.08528684 -77 101 C-77.68698975 100.9906543 -78.37397949 100.98130859 -79.08178711 100.97167969 C-106.99956378 100.4996344 -136.26421711 98.17782678 -161 84 C-161 83.34 -161 82.68 -161 82 C-160.30777344 82.13575439 -159.61554688 82.27150879 -158.90234375 82.41137695 C-130.9809924 87.84436059 -104.41717378 90.42707311 -76 91 C-76 73.84 -76 56.68 -76 39 C-72.7 39 -69.4 39 -66 39 C-66 56.16 -66 73.32 -66 91 C-63.69 91 -61.38 91 -59 91 C-59.00999275 89.9688205 -59.00999275 89.9688205 -59.02018738 88.91680908 C-59.08070444 82.38662384 -59.12617823 75.85651871 -59.15543652 69.32611465 C-59.17098523 65.97000756 -59.19368193 62.61431068 -59.22631836 59.25830078 C-59.26301543 55.38568099 -59.27979832 51.51338793 -59.29296875 47.640625 C-59.30845261 46.455755 -59.32393646 45.27088501 -59.33988953 44.05010986 C-59.34198337 33.51332525 -57.8699911 23.9061934 -52 15 C-51.34 15 -50.68 15 -50 15 C-49.76023437 14.40445313 -49.52046875 13.80890625 -49.2734375 13.1953125 C-47.7375442 10.54754552 -46.19767363 9.5074939 -43.625 7.875 C-42.46871094 7.12863281 -42.46871094 7.12863281 -41.2890625 6.3671875 C-40.53367187 5.91601562 -39.77828125 5.46484375 -39 5 C-38.42507812 4.64421875 -37.85015625 4.2884375 -37.2578125 3.921875 C-33.7028922 2.47038505 -30.03144224 1.96414456 -26.25 1.375 C-25.00029419 1.17716919 -25.00029419 1.17716919 -23.7253418 0.9753418 C-15.77548289 -0.19160305 -8.02244612 -0.29876696 0 0 Z " fill="#237B9E" transform="translate(194,53)"/>
<path d="M0 0 C24.42 0 48.84 0 74 0 C74 7.59 74 15.18 74 23 C59.15 23 44.3 23 29 23 C29 31.91 29 40.82 29 50 C32.02027344 49.98839844 35.04054688 49.97679687 38.15234375 49.96484375 C41.0646962 49.95705391 43.9770475 49.95097674 46.8894043 49.94506836 C48.91968298 49.94002722 50.94995802 49.93319443 52.98022461 49.92456055 C55.89177347 49.91248533 58.8032745 49.90676966 61.71484375 49.90234375 C62.6283812 49.89718246 63.54191864 49.89202118 64.48313904 49.88670349 C66.65575427 49.88650832 68.82827296 49.93788195 71 50 C72 51 72 51 72.11352539 53.13305664 C72.10567017 54.50772095 72.10567017 54.50772095 72.09765625 55.91015625 C72.09515869 56.800979 72.09266113 57.69180176 72.09008789 58.60961914 C72.08098389 59.74906982 72.07187988 60.88852051 72.0625 62.0625 C72.041875 65.671875 72.02125 69.28125 72 73 C57.81 73 43.62 73 29 73 C29 83.23 29 93.46 29 104 C43.85 104 58.7 104 74 104 C74 111.92 74 119.84 74 128 C49.58 128 25.16 128 0 128 C0 85.76 0 43.52 0 0 Z " fill="#27849F" transform="translate(405,15)"/>
<path d="M0 0 C1.17860596 0.00612305 2.35721191 0.01224609 3.5715332 0.01855469 C15.85263847 0.23769458 26.99776823 2.1653648 37.75 8.4375 C36.31112607 16.44596939 33.38818013 23.20986536 29.75 30.4375 C28.31208484 30.29581863 26.8746763 30.14898957 25.4375 30 C24.63699219 29.91878906 23.83648438 29.83757813 23.01171875 29.75390625 C20.75 29.4375 20.75 29.4375 17.75 28.4375 C17.75 27.7775 17.75 27.1175 17.75 26.4375 C11.77227698 25.56801301 5.90564834 25.32780783 -0.125 25.3125 C-0.87450928 25.30798828 -1.62401855 25.30347656 -2.39624023 25.29882812 C-5.60906384 25.30754974 -8.18088218 25.41446073 -11.25 26.4375 C-11.91 27.4275 -12.57 28.4175 -13.25 29.4375 C-13.91 29.4375 -14.57 29.4375 -15.25 29.4375 C-15.33204828 30.83232079 -15.38966204 32.22858728 -15.4375 33.625 C-15.47230469 34.40230469 -15.50710938 35.17960937 -15.54296875 35.98046875 C-15.07501147 39.90507043 -13.42761397 42.48710201 -10.3671875 44.95703125 C-4.14786676 48.54343398 2.2450378 51.65327942 8.77197266 54.6340332 C14.61930168 57.31019172 19.75850117 60.2974221 24.8125 64.3125 C25.64910156 64.96992187 26.48570313 65.62734375 27.34765625 66.3046875 C29.84219133 68.51934792 31.84416023 70.69978097 33.75 73.4375 C33.75 74.4275 33.75 75.4175 33.75 76.4375 C34.41 76.4375 35.07 76.4375 35.75 76.4375 C39.5419685 85.51385835 39.38218823 98.47529176 36.8046875 107.890625 C35.6316583 110.29570374 34.3786058 112.32031246 32.75 114.4375 C32.028125 115.51 31.30625 116.5825 30.5625 117.6875 C24.92608876 123.19865766 18.72531885 127.09074701 10.75 127.4375 C10.75 128.0975 10.75 128.7575 10.75 129.4375 C6.45722814 130.25559638 2.3988223 130.56601129 -1.96875 130.5703125 C-3.23074219 130.57160156 -4.49273438 130.57289063 -5.79296875 130.57421875 C-7.75169922 130.56841797 -7.75169922 130.56841797 -9.75 130.5625 C-11.05582031 130.56636719 -12.36164062 130.57023438 -13.70703125 130.57421875 C-14.96902344 130.57292969 -16.23101563 130.57164062 -17.53125 130.5703125 C-18.67658203 130.56918457 -19.82191406 130.56805664 -21.00195312 130.56689453 C-24.16633157 130.44083315 -27.14218812 130.02977225 -30.25 129.4375 C-30.25 128.7775 -30.25 128.1175 -30.25 127.4375 C-30.83007812 127.40011719 -31.41015625 127.36273438 -32.0078125 127.32421875 C-32.78898438 127.25847656 -33.57015625 127.19273437 -34.375 127.125 C-35.14070312 127.06699219 -35.90640625 127.00898438 -36.6953125 126.94921875 C-39.25 126.4375 -39.25 126.4375 -45.25 123.4375 C-45.25 114.5275 -45.25 105.6175 -45.25 96.4375 C-34.25 99.4375 -34.25 99.4375 -30.62109375 101.01953125 C-26.55281541 102.73075377 -22.65185669 103.44453533 -18.3125 104.125 C-17.53326172 104.25455078 -16.75402344 104.38410156 -15.95117188 104.51757812 C-14.05207832 104.8321519 -12.15120644 105.13595882 -10.25 105.4375 C-10.25 106.0975 -10.25 106.7575 -10.25 107.4375 C-0.87111305 105.43652047 -0.87111305 105.43652047 7.75 101.4375 C9.49684825 97.94380349 9.31474658 94.2495394 8.75 90.4375 C5.81798004 85.78076242 2.79262572 83.54836658 -2.25 81.4375 C-2.25 80.7775 -2.25 80.1175 -2.25 79.4375 C-2.971875 79.31375 -3.69375 79.19 -4.4375 79.0625 C-7.20721894 78.4470069 -9.6470354 77.55305626 -12.25 76.4375 C-12.25 75.7775 -12.25 75.1175 -12.25 74.4375 C-12.82105469 74.33695312 -13.39210938 74.23640625 -13.98046875 74.1328125 C-23.94382414 71.82017357 -33.02263993 65.19797114 -38.875 56.8125 C-39.70148765 55.37361488 -40.4970194 53.91617929 -41.25 52.4375 C-41.86875 51.2825 -42.4875 50.1275 -43.125 48.9375 C-45.6794605 41.54459078 -45.30331864 30.85660521 -43.25 23.4375 C-42.59 23.4375 -41.93 23.4375 -41.25 23.4375 C-41.12625 22.53 -41.0025 21.6225 -40.875 20.6875 C-39.61466054 14.13373479 -36.30706342 11.42087692 -31.25 7.4375 C-30.363125 6.715625 -29.47625 5.99375 -28.5625 5.25 C-19.73253652 0.41851055 -9.87350972 -0.08777082 0 0 Z " fill="#26839F" transform="translate(1006.25,13.5625)"/>
<path d="M0 0 C4.18064472 -0.19844229 8.35876999 -0.34321495 12.54272461 -0.43945312 C13.9641088 -0.47957871 15.38516486 -0.53409912 16.80541992 -0.60351562 C28.53827895 -1.16241889 28.53827895 -1.16241889 31.9387207 1.54174805 C33.28547883 3.6472938 34.15063339 5.6524839 35 8 C35.66277527 9.32426765 36.33568076 10.64352283 37.01953125 11.95703125 C37.62258822 13.23966209 38.22029844 14.52482112 38.8125 15.8125 C39.12380859 16.46669922 39.43511719 17.12089844 39.75585938 17.79492188 C41.11034617 20.70930116 42 22.74746824 42 26 C42.66 26 43.32 26 44 26 C48.95 36.395 48.95 36.395 54 47 C54.66 47 55.32 47 56 47 C56.4125 46.175 56.825 45.35 57.25 44.5 C65.625 27.75 65.625 27.75 74 11 C74.66 11 75.32 11 76 11 C76.103125 10.29875 76.20625 9.5975 76.3125 8.875 C77 6 77 6 80 0 C90.23 0 100.46 0 111 0 C110 5 110 5 109 7 C108.34 7 107.68 7 107 7 C106.63648438 8.24910156 106.27296875 9.49820312 105.8984375 10.78515625 C103.90089166 16.77193929 100.80535025 22.01156461 97.625 27.4375 C93.51083882 34.52456532 89.58664146 41.63090627 86 49 C85.23087105 50.54251768 84.46014803 52.08424202 83.6875 53.625 C83.130625 54.73875 82.57375 55.8525 82 57 C81.34 57 80.68 57 80 57 C79.814375 58.11375 79.814375 58.11375 79.625 59.25 C79.04513299 61.80141485 78.26291261 63.7267573 77 66 C76.34 66 75.68 66 75 66 C74.70996094 66.92232422 74.70996094 66.92232422 74.4140625 67.86328125 C74.15367187 68.67152344 73.89328125 69.47976562 73.625 70.3125 C73.24214844 71.51326172 73.24214844 71.51326172 72.8515625 72.73828125 C72 75 72 75 70 78 C69.67277829 80.32160672 69.67277829 80.32160672 69.68115234 82.93041992 C69.66128265 83.93123093 69.64141296 84.93204193 69.62094116 85.96318054 C69.60938995 87.04138565 69.59783875 88.11959076 69.5859375 89.23046875 C69.56657135 90.33602615 69.5472052 91.44158356 69.5272522 92.5806427 C69.46741164 96.11618301 69.4210527 99.65175579 69.375 103.1875 C69.33682438 105.58269659 69.2977729 107.9778794 69.2578125 110.37304688 C69.16005589 116.24862669 69.08052139 122.12405735 69 128 C59.76 128 50.52 128 41 128 C40.97421875 124.555625 40.9484375 121.11125 40.921875 117.5625 C40.88341228 114.20971667 40.83826548 110.85708493 40.79248047 107.50439453 C40.76433468 105.18252861 40.74308851 102.86056801 40.72900391 100.53857422 C40.70748645 97.19189201 40.66078876 93.84634051 40.609375 90.5 C40.60814636 89.4694751 40.60691772 88.4389502 40.60565186 87.37719727 C40.47588515 80.92518098 39.37083519 76.49214183 36 71 C33 65.32142857 33 65.32142857 33 62 C32.34 62 31.68 62 31 62 C30.32591692 60.73308493 29.66099503 59.46129251 29 58.1875 C28.443125 57.12595703 28.443125 57.12595703 27.875 56.04296875 C27 54 27 54 27 51 C26.34 51 25.68 51 25 51 C23.79140144 48.58280289 22.58338579 46.16534752 21.37890625 43.74609375 C20.52440433 42.04435197 19.65923566 40.34786632 18.77734375 38.66015625 C16 33.31451613 16 33.31451613 16 30 C15.34 30 14.68 30 14 30 C13.48050781 28.9378125 12.96101562 27.875625 12.42578125 26.78125 C8.12008534 17.86860893 8.12008534 17.86860893 3.0625 9.375 C0.99904628 5.99843937 0.51202729 3.84828929 0 0 Z " fill="#28889F" transform="translate(688,15)"/>
<path d="M0 0 C24.09 0 48.18 0 73 0 C73 7.59 73 15.18 73 23 C58.15 23 43.3 23 28 23 C28 33.23 28 43.46 28 54 C42.19 54 56.38 54 71 54 C71 61.59 71 69.18 71 77 C56.81 77 42.62 77 28 77 C28 93.83 28 110.66 28 128 C18.76 128 9.52 128 0 128 C0 85.76 0 43.52 0 0 Z " fill="#28879F" transform="translate(814,15)"/>
<path d="M0 0 C9.24 0 18.48 0 28 0 C28.04520618 16.92484522 28.08202367 33.84963865 28.10362434 50.77452755 C28.113922 58.63364262 28.12795336 66.49271742 28.15087891 74.35180664 C28.17085914 81.20450019 28.18372741 88.05716455 28.18817699 94.90988642 C28.19077654 98.53588224 28.19685493 102.16179461 28.21146011 105.7877636 C28.22766013 109.8428398 28.22797672 113.89777237 28.22705078 117.95288086 C28.23424133 119.14547012 28.24143188 120.33805939 28.24884033 121.56678772 C28.21719372 134.39688083 25.59867466 145.77582978 16.66015625 155.46875 C7.67110828 163.75982483 -2.08463588 164.31667647 -13.8125 164.1875 C-14.94365234 164.18685547 -16.07480469 164.18621094 -17.24023438 164.18554688 C-25.57742982 164.14085673 -25.57742982 164.14085673 -29 163 C-29 155.08 -29 147.16 -29 139 C-19.75 139.125 -19.75 139.125 -16.85449219 139.18017578 C-16.09297852 139.1851709 -15.33146484 139.19016602 -14.546875 139.1953125 C-13.38430176 139.21102295 -13.38430176 139.21102295 -12.19824219 139.22705078 C-9.70696523 138.96973319 -8.12932764 138.29940312 -6 137 C-4.70548064 135.31796964 -4.70548064 135.31796964 -3.8125 133.3125 C-3.32716797 132.34763672 -3.32716797 132.34763672 -2.83203125 131.36328125 C-0.42578425 124.52863601 -0.83155554 117.15439717 -0.79467773 110.00610352 C-0.78477814 108.81514572 -0.77487854 107.62418793 -0.76467896 106.3971405 C-0.73860301 103.14973714 -0.7166953 99.90233847 -0.69667697 96.65489316 C-0.67471678 93.25427262 -0.64737747 89.85369531 -0.62062073 86.45310974 C-0.57082884 80.02182693 -0.52584028 73.59051994 -0.48259836 67.15919012 C-0.43311011 59.83386656 -0.37823519 52.50858641 -0.32291877 45.18330491 C-0.2093062 30.12224238 -0.1031335 15.06113861 0 0 Z " fill="#247C9E" transform="translate(347,15)"/>
<path d="M0 0 C9.57 0 19.14 0 29 0 C29 34.32 29 68.64 29 104 C45.83 104 62.66 104 80 104 C81.65394117 105.65394117 81.12999683 107.60315413 81.1328125 109.875 C81.13410156 110.85984375 81.13539063 111.8446875 81.13671875 112.859375 C81.13285156 113.89578125 81.12898437 114.9321875 81.125 116 C81.12886719 117.03640625 81.13273438 118.0728125 81.13671875 119.140625 C81.13542969 120.12546875 81.13414062 121.1103125 81.1328125 122.125 C81.13168457 123.03507812 81.13055664 123.94515625 81.12939453 124.8828125 C81 127 81 127 80 128 C77.5050359 128.0950257 75.03797738 128.12556258 72.54272461 128.11352539 C71.74962922 128.11364593 70.95653383 128.11376646 70.13940525 128.11389065 C67.56035667 128.1131415 64.98137948 128.10551321 62.40234375 128.09765625 C60.81481969 128.09618684 59.22729515 128.09516612 57.63977051 128.09460449 C51.73900631 128.08935154 45.83825246 128.07539046 39.9375 128.0625 C20.1684375 128.0315625 20.1684375 128.0315625 0 128 C0 85.76 0 43.52 0 0 Z " fill="#257F9F" transform="translate(603,15)"/>
<path d="M0 0 C9.24 0 18.48 0 28 0 C28 34.32 28 68.64 28 104 C44.83 104 61.66 104 79 104 C79 111.92 79 119.84 79 128 C52.93 128 26.86 128 0 128 C0 85.76 0 43.52 0 0 Z " fill="#257F9F" transform="translate(504,15)"/>
<path d="M0 0 C1.33766013 -0.00551503 1.33766013 -0.00551503 2.7023437 -0.01114148 C5.70861165 -0.02220772 8.71484507 -0.02602713 11.72113037 -0.02983093 C13.86929943 -0.03609335 16.01746739 -0.04273995 18.16563416 -0.04974365 C24.01490182 -0.06717373 29.86416131 -0.07771083 35.71344852 -0.08594918 C39.36555436 -0.09109494 43.01765763 -0.09717086 46.66976166 -0.10346031 C58.08958771 -0.12251774 69.50940728 -0.13674786 80.92924619 -0.14507228 C94.12408015 -0.15484858 107.31874654 -0.18117617 120.51352143 -0.22157317 C130.70380621 -0.2517041 140.89404286 -0.26653828 151.08437133 -0.26985329 C157.17453038 -0.27220718 163.26451051 -0.28121172 169.35462189 -0.30631447 C175.08376987 -0.32954728 180.81262053 -0.33384762 186.54180336 -0.32355309 C188.64529469 -0.32305645 190.74880043 -0.32941423 192.85224724 -0.34310913 C195.72306431 -0.36075514 198.59280592 -0.35375765 201.46362305 -0.34057617 C202.71353763 -0.35703004 202.71353763 -0.35703004 203.98870301 -0.37381631 C209.29109057 -0.31499961 212.2651651 0.65773154 216.48577881 4.14717102 C221.17245817 9.46718543 221.63446823 12.72508033 221.63294983 19.66139221 C221.63662652 20.55316563 221.64030321 21.44493906 221.64409131 22.36373591 C221.65515755 25.37000386 221.65897696 28.37623728 221.66278076 31.38252258 C221.66904318 33.53069164 221.67568978 35.6788596 221.68269348 37.82702637 C221.70012356 43.67629404 221.71066066 49.52555352 221.71889901 55.37484074 C221.72404477 59.02694657 221.73012068 62.67904984 221.73641014 66.33115387 C221.75546757 77.75097993 221.76969769 89.17079949 221.77802211 100.5906384 C221.78779841 113.78547237 221.814126 126.98013875 221.854523 140.17491364 C221.88465393 150.36519842 221.89948811 160.55543507 221.90280312 170.74576354 C221.90515701 176.83592259 221.91416155 182.92590272 221.9392643 189.0160141 C221.96249711 194.74516208 221.96679745 200.47401274 221.95650291 206.20319557 C221.95600628 208.30668691 221.96236406 210.41019264 221.97605896 212.51363945 C221.99370497 215.38445652 221.98670748 218.25419813 221.973526 221.12501526 C221.98449525 221.95829165 221.99546449 222.79156804 222.00676614 223.65009522 C221.94794944 228.95248278 220.97521829 231.92655731 217.48577881 236.14717102 C212.1657644 240.83385038 208.9078695 241.29586044 201.97155762 241.29434204 C200.63389748 241.29985707 200.63389748 241.29985707 199.26921391 241.30548352 C196.26294597 241.31654976 193.25671254 241.32036917 190.25042725 241.32417297 C188.10225819 241.33043539 185.95409023 241.33708199 183.80592346 241.34408569 C177.95665579 241.36151577 172.10739631 241.37205287 166.25810909 241.38029122 C162.60600326 241.38543698 158.95389999 241.3915129 155.30179596 241.39780235 C143.8819699 241.41685978 132.46215034 241.4310899 121.04231143 241.43941432 C107.84747746 241.44919062 94.65281108 241.47551821 81.45803618 241.51591522 C71.26775141 241.54604614 61.07751476 241.56088032 50.88718629 241.56419533 C44.79702724 241.56654922 38.70704711 241.57555376 32.61693573 241.60065651 C26.88778774 241.62388932 21.15893709 241.62818966 15.42975426 241.61789513 C13.32626292 241.61739849 11.22275719 241.62375627 9.11931038 241.63745117 C6.24849331 241.65509718 3.37875169 241.64809969 0.50793457 241.63491821 C-0.32534182 241.64588746 -1.15861821 241.6568567 -2.0171454 241.66815835 C-7.31953295 241.60934165 -10.29360748 240.6366105 -14.51422119 237.14717102 C-19.20090055 231.82715661 -19.66291061 228.56926172 -19.66139221 221.63294983 C-19.6650689 220.74117641 -19.66874559 219.84940299 -19.67253369 218.93060613 C-19.68359993 215.92433818 -19.68741934 212.91810476 -19.69122314 209.91181946 C-19.69748556 207.7636504 -19.70413216 205.61548244 -19.71113586 203.46731567 C-19.72856594 197.61804801 -19.73910304 191.76878852 -19.74734139 185.9195013 C-19.75248715 182.26739547 -19.75856307 178.6152922 -19.76485252 174.96318817 C-19.78390995 163.54336211 -19.79814008 152.12354255 -19.80646449 140.70370364 C-19.81624079 127.50886968 -19.84256838 114.31420329 -19.88296539 101.1194284 C-19.91309631 90.92914362 -19.92793049 80.73890697 -19.93124551 70.5485785 C-19.93359939 64.45841945 -19.94260394 58.36843932 -19.96770668 52.27832794 C-19.99093949 46.54917996 -19.99523983 40.8203293 -19.9849453 35.09114647 C-19.98444867 32.98765513 -19.99080644 30.8841494 -20.00450134 28.78070259 C-20.02214735 25.90988552 -20.01514986 23.04014391 -20.00196838 20.16932678 C-20.01293763 19.33605039 -20.02390688 18.502774 -20.03520852 17.64424682 C-19.97639182 12.34185926 -19.00366067 9.36778473 -15.51422119 5.14717102 C-10.19420678 0.46049166 -6.93631189 -0.0015184 0 0 Z M-12.38922119 10.08467102 C-14.89528334 14.6791183 -14.66022825 19.39803424 -14.65466309 24.51553345 C-14.65763421 25.36747463 -14.66060533 26.21941581 -14.66366649 27.09717339 C-14.67234977 29.956704 -14.67386142 32.81619272 -14.675354 35.67573547 C-14.67998241 37.72405588 -14.6850071 39.77237543 -14.69039917 41.82069397 C-14.70352231 47.38893102 -14.70996787 52.95715602 -14.71440983 58.52540612 C-14.71734046 62.00365566 -14.72144524 65.48190189 -14.725914 68.96014977 C-14.73958821 79.84123161 -14.74925545 90.72230592 -14.75311589 101.60339576 C-14.75759772 114.1670957 -14.77515179 126.73068691 -14.80411649 139.29435378 C-14.82572511 149.00401988 -14.83581972 158.71365537 -14.83715701 168.42334527 C-14.83820555 174.22339728 -14.84412392 180.02334708 -14.86197662 185.82337379 C-14.87844324 191.27919998 -14.88061959 196.73484693 -14.87183762 202.19068909 C-14.87106651 204.1921658 -14.8754196 206.1936521 -14.88529587 208.1951046 C-14.89799703 210.92956925 -14.89214848 213.66339735 -14.88171387 216.39785767 C-14.88977027 217.18794749 -14.89782668 217.97803732 -14.90612721 218.79206926 C-14.86006743 223.96081411 -13.90933044 227.54563201 -11.51422119 232.14717102 C-6.81167366 236.69802347 -1.3607847 236.29437151 4.85414124 236.28761292 C5.70608242 236.29058404 6.5580236 236.29355516 7.43578118 236.29661632 C10.29531179 236.3052996 13.15480051 236.30681125 16.01434326 236.30830383 C18.06266367 236.31293224 20.11098322 236.31795693 22.15930176 236.323349 C27.72753881 236.33647214 33.29576381 236.3429177 38.86401391 236.34735966 C42.34226344 236.35029029 45.82050968 236.35439507 49.29875755 236.35886383 C60.1798394 236.37253803 71.06091371 236.38220528 81.94200355 236.38606572 C94.50570349 236.39054755 107.0692947 236.40810162 119.63296157 236.43706632 C129.34262767 236.45867494 139.05226316 236.46876955 148.76195306 236.47010684 C154.56200507 236.47115538 160.36195486 236.47707375 166.16198158 236.49492645 C171.61780776 236.51139307 177.07345471 236.51356942 182.52929688 236.50478745 C184.53077359 236.50401634 186.53225989 236.50836943 188.53371239 236.5182457 C191.26817704 236.53094686 194.00200514 236.52509831 196.73646545 236.5146637 C197.52655528 236.5227201 198.3166451 236.53077651 199.13067704 236.53907704 C204.2994219 236.49301726 207.8842398 235.54228026 212.48577881 233.14717102 C217.03663126 228.44462349 216.63297929 222.99373453 216.6262207 216.77880859 C216.62919183 215.92686741 216.63216295 215.07492623 216.6352241 214.19716865 C216.64390739 211.33763804 216.64541904 208.47814932 216.64691162 205.61860657 C216.65154003 203.57028616 216.65656472 201.52196661 216.66195679 199.47364807 C216.67507992 193.90541102 216.68152549 188.33718602 216.68596745 182.76893592 C216.68889808 179.29068639 216.69300286 175.81244015 216.69747162 172.33419228 C216.71114582 161.45311043 216.72081307 150.57203612 216.72467351 139.69094628 C216.72915534 127.12724634 216.74670941 114.56365513 216.7756741 101.99998826 C216.79728273 92.29032216 216.80737734 82.58068667 216.80871463 72.87099677 C216.80976317 67.07094476 216.81568154 61.27099497 216.83353424 55.47096825 C216.85000086 50.01514206 216.85217721 44.55949511 216.84339523 39.10365295 C216.84262413 37.10217624 216.84697722 35.10068994 216.85685349 33.09923744 C216.86955464 30.36477279 216.8637061 27.63094469 216.85327148 24.89648438 C216.86132789 24.10639455 216.86938429 23.31630473 216.87768483 22.50227278 C216.83162504 17.33352793 215.88088805 13.74871003 213.48577881 9.14717102 C208.78323128 4.59631857 203.33234232 4.99997054 197.11741638 5.00672913 C196.2654752 5.003758 195.41353402 5.00078688 194.53577644 4.99772573 C191.67624583 4.98904244 188.81675711 4.98753079 185.95721436 4.98603821 C183.90889395 4.9814098 181.8605744 4.97638511 179.81225586 4.97099304 C174.24401881 4.9578699 168.67579381 4.95142434 163.10754371 4.94698238 C159.62929417 4.94405175 156.15104794 4.93994697 152.67280006 4.93547821 C141.79171822 4.92180401 130.91064391 4.91213676 120.02955407 4.90827632 C107.46585413 4.90379449 94.90226292 4.88624042 82.33859605 4.85727572 C72.62892994 4.8356671 62.91929446 4.82557249 53.20960456 4.8242352 C47.40955254 4.82318666 41.60960275 4.81726829 35.80957603 4.79941559 C30.35374985 4.78294897 24.8981029 4.78077262 19.44226074 4.7895546 C17.44078403 4.7903257 15.43929773 4.78597261 13.43784523 4.77609634 C10.70338057 4.76339519 7.96955248 4.76924373 5.23509216 4.77967834 C4.44500234 4.77162194 3.65491251 4.76356554 2.84088057 4.755265 C-2.98663138 4.8071952 -8.15953042 5.71399056 -12.38922119 10.08467102 Z " fill="#2E979F" transform="translate(36.51422119140625,13.852828979492188)"/>
<path d="M0 0 C9.24 0 18.48 0 28 0 C28 42.24 28 84.48 28 128 C18.76 128 9.52 128 0 128 C0 85.76 0 43.52 0 0 Z " fill="#27849F" transform="translate(911,15)"/>
<path d="M0 0 C11 0 11 0 13.47265625 1.84375 C14.25962891 3.15859375 14.25962891 3.15859375 15.0625 4.5 C15.70574219 5.5209375 16.34898437 6.541875 17.01171875 7.59375 C17.66785156 8.7178125 18.32398438 9.841875 19 11 C20.06518927 12.71069796 21.13069091 14.42121321 22.20263672 16.12768555 C22.99725441 17.39672409 23.78648618 18.66914811 24.57080078 19.94458008 C29.77009073 28.36633644 35.32725245 36.55553819 40.84326172 44.77148438 C41.22655136 45.3431282 41.609841 45.91477203 42.00474548 46.5037384 C43.05713029 48.07261327 44.11139052 49.64022965 45.16577148 51.20776367 C46.84399542 53.76251506 48.42735973 56.37893288 50 59 C50.33 39.53 50.66 20.06 51 0 C53.97 0 56.94 0 60 0 C60 24.75 60 49.5 60 75 C48 75 48 75 44.94921875 72.08984375 C44.15189797 70.73027493 43.40044211 69.34315336 42.6875 67.9375 C41.78533472 66.3681887 40.88022341 64.80056848 39.97265625 63.234375 C39.49973145 62.38810547 39.02680664 61.54183594 38.53955078 60.66992188 C35.77554465 55.87652336 32.67772216 51.300162 29.625 46.6875 C28.46987153 44.92154184 27.31626616 43.1545866 26.1640625 41.38671875 C24.78992188 39.27910156 23.41578125 37.17148438 22 35 C15.565 25.1 15.565 25.1 9 15 C9 34.8 9 54.6 9 75 C6.03 75 3.06 75 0 75 C0 50.25 0 25.5 0 0 Z " fill="#1C669D" transform="translate(675,181)"/>
<path d="M0 0 C6.82765593 5.07659762 11.36562015 13.76618515 12.81640625 22.08203125 C14.1597128 36.83708093 13.4955869 50.62031568 4.0625 62.78515625 C-3.3801141 70.22777035 -11.61070032 72.07075022 -21.8125 72.22265625 C-30.71936902 72.17243298 -37.68316915 70.51434963 -45.25 65.66015625 C-53.81914334 56.4931657 -56.8734053 45.70787725 -57.3125 33.28515625 C-56.94024725 22.75350561 -54.9206168 11.98082261 -47.9375 3.78515625 C-34.9654352 -7.70989127 -14.68925345 -9.21039884 0 0 Z M-40.9375 10.78515625 C-47.07282549 20.03876599 -48.0946306 31.10336485 -46.47265625 41.87109375 C-44.88586698 49.32618652 -42.39801278 55.47356343 -36.1328125 60.125 C-29.22821201 64.28850373 -21.46096841 64.96609983 -13.6171875 63.2890625 C-7.39336854 61.19473559 -3.64230583 57.09603483 0.0625 51.78515625 C5.25909854 40.75040381 4.36836404 26.81625688 0.3828125 15.5703125 C-2.42461951 9.64812605 -6.20416622 6.18225503 -12.3125 3.84765625 C-22.77939056 0.99143696 -33.26353999 2.75426786 -40.9375 10.78515625 Z " fill="#1C679D" transform="translate(806.9375,185.21484375)"/>
<path d="M0 0 C9.11998376 5.77541505 14.10366394 12.96413867 16.9140625 23.48046875 C19.24681303 36.14838553 18.50208693 49.45321285 11.64453125 60.625 C6.57201688 67.72390542 0.64059084 72.30317587 -7.93359375 74.30859375 C-20.27115074 75.66142057 -31.20709601 75.0184573 -41.24609375 67.18359375 C-48.5715759 60.27248231 -51.84763457 50.40623699 -52.234375 40.50390625 C-52.25382867 38.81390953 -52.25734268 37.123665 -52.24609375 35.43359375 C-52.2404541 34.54953857 -52.23481445 33.6654834 -52.22900391 32.75463867 C-52.00631933 20.81014649 -48.614788 12.11890605 -40.18359375 3.49609375 C-28.9988438 -4.03210333 -12.45265098 -6.25881067 0 0 Z M-37.93359375 15.30859375 C-43.48774241 24.31014503 -43.12868549 37.27864236 -41.40234375 47.43359375 C-39.220773 55.21136773 -35.86267146 60.14631834 -28.93359375 64.328125 C-22.87833163 67.29662264 -15.66298512 67.19425751 -9.203125 65.66015625 C-2.39021359 63.24832377 1.83418936 59.7993923 5.05859375 53.3125 C9.23409372 42.47608341 9.03382488 29.85589525 5.25 18.95703125 C2.82722204 13.54379513 -0.53304584 9.89979353 -6.00390625 7.33984375 C-18.31614357 2.70666734 -29.18465891 5.51139943 -37.93359375 15.30859375 Z " fill="#1C679D" transform="translate(938.93359375,182.69140625)"/>
<path d="M0 0 C1.30904297 -0.01740234 1.30904297 -0.01740234 2.64453125 -0.03515625 C8.68044242 -0.00832998 15.097622 0.46041431 20.5 3.375 C21.71840715 6.20344516 21.57488355 7.15534159 20.5625 10.125 C20.0365625 11.23875 20.0365625 11.23875 19.5 12.375 C15.64794322 11.88324807 11.95450899 11.25760368 8.1875 10.3125 C-1.68376097 8.10026494 -9.88278644 9.35034655 -18.75 14.125 C-24.28610789 18.65454282 -27.95754438 24.21087052 -28.72070312 31.47607422 C-29.27341489 42.45770748 -29.35849793 52.33470527 -22.1875 61.25 C-15.22549134 66.75484406 -9.42870763 68.51925344 -0.5625 68.5 C1.21447266 68.50386719 1.21447266 68.50386719 3.02734375 68.5078125 C6.94173459 68.43147532 6.94173459 68.43147532 12.5 67.375 C12.83 60.115 13.16 52.855 13.5 45.375 C7.89 45.375 2.28 45.375 -3.5 45.375 C-3.5 42.735 -3.5 40.095 -3.5 37.375 C5.41 37.375 14.32 37.375 23.5 37.375 C23.5 49.585 23.5 61.795 23.5 74.375 C14.48891138 76.45448199 7.29298661 77.87677154 -1.6875 77.8125 C-3.19086914 77.8424707 -3.19086914 77.8424707 -4.72460938 77.87304688 C-14.17867637 77.86690388 -22.25446808 75.14420062 -29.6796875 69.20703125 C-37.91270839 60.92100808 -39.89701736 50.877788 -39.875 39.625 C-39.82634556 27.03385175 -37.58295618 17.58797805 -28.5 8.375 C-20.32724232 1.57852792 -10.34956349 -0.13758652 0 0 Z " fill="#1C679D" transform="translate(1008.5,179.625)"/>
<path d="M0 0 C2.97 0 5.94 0 9 0 C9 10.56 9 21.12 9 32 C21.87 32 34.74 32 48 32 C48 21.44 48 10.88 48 0 C50.97 0 53.94 0 57 0 C57 24.75 57 49.5 57 75 C54.03 75 51.06 75 48 75 C48 63.45 48 51.9 48 40 C35.13 40 22.26 40 9 40 C9 51.55 9 63.1 9 75 C6.03 75 3.06 75 0 75 C0 50.25 0 25.5 0 0 Z " fill="#1C669D" transform="translate(598,181)"/>
<path d="M0 0 C13.86 0 27.72 0 42 0 C42 2.64 42 5.28 42 8 C31.11 8 20.22 8 9 8 C9 15.92 9 23.84 9 32 C19.23 32 29.46 32 40 32 C40 34.64 40 37.28 40 40 C29.77 40 19.54 40 9 40 C9 48.91 9 57.82 9 67 C19.89 67 30.78 67 42 67 C42 69.64 42 72.28 42 75 C28.14 75 14.28 75 0 75 C0 50.25 0 25.5 0 0 Z " fill="#1C679E" transform="translate(1078,181)"/>
<path d="M0 0 C13.86 0 27.72 0 42 0 C42 2.64 42 5.28 42 8 C31.11 8 20.22 8 9 8 C9 15.92 9 23.84 9 32 C19.23 32 29.46 32 40 32 C40 34.64 40 37.28 40 40 C29.77 40 19.54 40 9 40 C9 48.91 9 57.82 9 67 C19.89 67 30.78 67 42 67 C42 69.64 42 72.28 42 75 C28.14 75 14.28 75 0 75 C0 50.25 0 25.5 0 0 Z " fill="#1C679E" transform="translate(473,181)"/>
<path d="M0 0 C1.6171875 0.8515625 1.6171875 0.8515625 2.6171875 2.8515625 C1.68139755 5.21138063 0.68370942 7.54787514 -0.3828125 9.8515625 C-1.300625 9.635 -2.2184375 9.4184375 -3.1640625 9.1953125 C-16.59002163 5.98802863 -16.59002163 5.98802863 -29.3828125 9.8515625 C-31.54947917 11.3515625 -31.54947917 11.3515625 -32.3828125 13.8515625 C-32.62989148 17.06358927 -32.5649729 19.84288818 -31.3828125 22.8515625 C-26.86773243 27.48040836 -21.97883821 29.46267757 -16.0078125 31.7265625 C-8.50022263 34.72588147 -1.79104459 37.63019684 2.77734375 44.62890625 C4.86383339 50.15082535 4.56466875 57.51552074 2.96484375 63.1484375 C0.20261874 68.50691692 -4.5736508 71.61932286 -9.9296875 73.96875 C-14.73257479 75.19663747 -19.32013877 75.18058751 -24.2578125 75.1640625 C-25.69060547 75.18823242 -25.69060547 75.18823242 -27.15234375 75.21289062 C-33.2699285 75.2170865 -37.79384582 74.35536672 -43.3828125 71.8515625 C-43.3828125 68.8815625 -43.3828125 65.9115625 -43.3828125 62.8515625 C-42.51140625 63.068125 -41.64 63.2846875 -40.7421875 63.5078125 C-30.0728328 66.00194737 -19.46831494 68.16937288 -9.3828125 62.8515625 C-7.10142495 60.50104199 -6.50251428 58.96809121 -6.15625 55.73828125 C-6.21316097 52.35207827 -6.59793873 49.85509611 -8.71484375 47.1484375 C-13.47179804 43.21021826 -19.15496643 41.25535967 -24.86474609 39.10522461 C-31.79934921 36.43907655 -37.19013522 33.04419503 -41.3828125 26.8515625 C-43.52733011 20.41800966 -43.50785091 12.52352873 -40.8828125 6.2890625 C-30.07243518 -4.25105539 -13.87018467 -4.75137814 0 0 Z " fill="#1C679D" transform="translate(1175.3828125,182.1484375)"/>
<path d="M0 0 C1 3 1 3 -0.4375 6.1875 C-1.2109375 7.5796875 -1.2109375 7.5796875 -2 9 C-2.59167969 8.86722656 -3.18335938 8.73445312 -3.79296875 8.59765625 C-5.42639853 8.23259935 -7.06054893 7.87075561 -8.6953125 7.51171875 C-10.32175835 7.15059264 -11.943894 6.76978195 -13.5625 6.375 C-21.51199753 5.15200038 -28.33161135 6.09981519 -35.20703125 10.37109375 C-41.00474089 14.85652032 -43.66705073 19.8353977 -45 27 C-46.23317171 38.81422538 -45.1878804 48.1471048 -38.9375 58.375 C-32.67661159 63.96983645 -25.10473753 65.58323436 -16.859375 65.2734375 C-11.85603652 64.79497617 -6.93069194 63.96376527 -2 63 C-2 65.97 -2 68.94 -2 72 C-13.07397132 75.22668162 -28.41303883 76.68982113 -38.99609375 71.33203125 C-48.40452479 65.07808391 -53.48255944 58.01464353 -56 47 C-56.41407367 43.34218379 -56.47737401 39.74119933 -56.4375 36.0625 C-56.43137695 35.09828125 -56.42525391 34.1340625 -56.41894531 33.140625 C-56.26531006 26.15376654 -55.41015756 20.20459223 -52 14 C-51.4225 12.9275 -50.845 11.855 -50.25 10.75 C-39.19711908 -2.75907669 -16.19396629 -9.50515413 0 0 Z " fill="#1C679D" transform="translate(584,183)"/>
<path d="M0 0 C18.81 0 37.62 0 57 0 C57 2.64 57 5.28 57 8 C49.08 8 41.16 8 33 8 C33 30.11 33 52.22 33 75 C29.7 75 26.4 75 23 75 C23 52.89 23 30.78 23 8 C15.41 8 7.82 8 0 8 C0 5.36 0 2.72 0 0 Z " fill="#1C669E" transform="translate(406,181)"/>
<path d="M0 0 C3.3 0 6.6 0 10 0 C10 22.11 10 44.22 10 67 C20.89 67 31.78 67 43 67 C43 69.64 43 72.28 43 75 C28.81 75 14.62 75 0 75 C0 50.25 0 25.5 0 0 Z " fill="#1C669E" transform="translate(836,181)"/>
<path d="M0 0 C2.97 0 5.94 0 9 0 C9 24.75 9 49.5 9 75 C6.03 75 3.06 75 0 75 C0 50.25 0 25.5 0 0 Z " fill="#1C679E" transform="translate(1049,181)"/>
</svg>
